<svg xmlns="http://www.w3.org/2000/svg" xmlns:xlink="http://www.w3.org/1999/xlink" width="160pt" height="59pt" viewBox="0 0 160 59"><clipPath id="a"><path transform="matrix(1 0 0 -1 -208 707)" d="M0 0h612v792.96H0Z"/></clipPath><g clip-path="url(#a)"><clipPath id="b"><path transform="matrix(.24 0 0 .24 -208 -85.96)" d="M0 0h2550v3302.115H0Z" fill-rule="evenodd"/></clipPath><g clip-path="url(#b)" fill="#fff"><path d="M-208-85.96h612v792.508h-612Z"/><path d="M-208-85.96h612v791.789h-612Z"/></g><clipPath id="c"><path transform="matrix(.24 0 0 .24 -208 -85.96)" d="M0 0h2550v3299.119H0Z" fill-rule="evenodd"/></clipPath><g clip-path="url(#c)"><path stroke-miterlimit="10" fill="none" stroke="#000" d="M.914 29.464h99.07M95.756 31.981l5.034-2.517-5.034-2.517" stroke-width=".71915"/><path d="M159.128 29.464a28.735 28.735 0 0 1-2.19 11.009 28.752 28.752 0 0 1-13.016 14.36 28.743 28.743 0 0 1-13.56 3.397 28.75 28.75 0 0 1-15.982-4.848 28.757 28.757 0 0 1-12.232-18.306 28.741 28.741 0 0 1 0-11.224 28.75 28.75 0 0 1 7.873-14.729 28.75 28.75 0 0 1 14.729-7.872 28.747 28.747 0 0 1 13.962.686 28.75 28.75 0 0 1 13.886 9.278 28.733 28.733 0 0 1 5.291 9.899 28.746 28.746 0 0 1 1.24 8.35Z" fill="#fff"/><path fill="none" stroke="#000" d="M159.128 29.464a28.735 28.735 0 0 1-2.19 11.009 28.752 28.752 0 0 1-13.016 14.36 28.743 28.743 0 0 1-13.56 3.397 28.75 28.75 0 0 1-15.982-4.848 28.757 28.757 0 0 1-12.232-18.306 28.741 28.741 0 0 1 0-11.224 28.75 28.75 0 0 1 7.873-14.729 28.75 28.75 0 0 1 14.729-7.872 28.747 28.747 0 0 1 13.962.686 28.75 28.75 0 0 1 13.886 9.278 28.733 28.733 0 0 1 5.291 9.899 28.746 28.746 0 0 1 1.24 8.35Z" stroke-width=".71915"/><symbol id="d"><path d="M.425.001A.056.056 0 0 0 .388.01C.378.016.369.03.364.05a1.151 1.151 0 0 1-.011.066C.311.045.257.01.192.01a.181.181 0 0 0-.12.048.25.25 0 0 0-.064.106A.207.207 0 0 0 0 .22a.578.578 0 0 0 .03.182c.01.023.022.044.036.062a.226.226 0 0 0 .098.074.349.349 0 0 0 .12.022.196.196 0 0 0 .092-.02.266.266 0 0 0 .078-.064A1.391 1.391 0 0 1 .438.263C.439.206.448.139.465.061.47.041.468.026.46.017A.05.05 0 0 0 .425 0M.104.253a.257.257 0 0 1 .021-.1.108.108 0 0 1 .03-.04.064.064 0 0 1 .04-.015c.017 0 .033.005.049.014.016.01.03.021.042.035a.323.323 0 0 1 .056.097c0 .062.004.126.011.194a.164.164 0 0 1-.041.025.13.13 0 0 1-.05.008.126.126 0 0 1-.08-.029A.176.176 0 0 1 .116.34.314.314 0 0 1 .104.253Z"/></symbol><use xlink:href="#d" transform="matrix(8.62985 0 0 -8.62985 128.047 30.896)"/><symbol id="e"><path d="M.1.053C.1.043.097.033.094.026A.032.032 0 0 0 .083.009.043.043 0 0 0 .068.002.067.067 0 0 0 .051 0 .047.047 0 0 0 .02.012C.012.02.009.033.009.053a.52.52 0 0 1-.004.072 4.953 4.953 0 0 0-.002.359c0 .022.006.039.017.05.012.01.025.015.039.015A.038.038 0 0 0 .09.533C.099.523.1.507.098.484L.094.46A.782.782 0 0 1 .091.434c.032.066.076.1.132.1C.237.534.25.524.26.506A.26.26 0 0 0 .285.433c.036.067.087.1.151.1.016 0 .029-.01.038-.029A.223.223 0 0 0 .491.427 1.716 1.716 0 0 0 .495.19C.494.148.495.106.496.065.496.052.496.04.494.03a.04.04 0 0 0-.01-.02.028.028 0 0 0-.012-.008.044.044 0 0 0-.016-.002c-.006 0-.012 0-.018.002A.05.05 0 0 0 .422.01a.042.042 0 0 0-.014.02.12.12 0 0 0-.006.034.887.887 0 0 0-.001.08A8.47 8.47 0 0 1 .403.34.542.542 0 0 1 .4.41C.397.43.393.439.387.439.368.44.351.43.335.41A.266.266 0 0 1 .296.333a1.58 1.58 0 0 0-.001-.15A1.508 1.508 0 0 1 .293.058.08.08 0 0 0 .29.028.031.031 0 0 0 .28.01.036.036 0 0 0 .265.002.056.056 0 0 0 .248.001a.042.042 0 0 0-.03.012C.21.02.204.035.202.058c-.001.021 0 .058.003.111.004.054.006.095.006.125v.024C.212.368.21.4.208.416.206.432.2.439.19.439.173.44.157.43.14.406A.311.311 0 0 1 .094.328 2.641 2.641 0 0 1 .097.12L.099.053Z"/></symbol><symbol id="f"><path d="M.487.046a.045.045 0 0 0-.01-.033C.469.004.455 0 .435 0a46.219 46.219 0 0 0-.391.003C.029.003.018.007.01.016a.046.046 0 0 0-.01.03C0 .06.003.071.01.08c.007.009.019.013.035.013.03 0 .081 0 .154-.002 0 .027 0 .048-.002.065V.273a7.032 7.032 0 0 0 .009.24L.21.596A.483.483 0 0 0 .1.522C.088.517.075.521.061.532.048.544.041.556.041.568c0 .01.003.02.008.029a.105.105 0 0 0 .025.026A1.666 1.666 0 0 1 .181.71a.2.2 0 0 0 .03.02c.01.006.018.01.026.01A.07.07 0 0 0 .281.72C.296.71.303.7.303.691L.297.526A7.525 7.525 0 0 1 .292.363 11.858 11.858 0 0 1 .295.088 4.586 4.586 0 0 0 .437.085C.456.085.47.081.476.075A.041.041 0 0 0 .487.045Z"/></symbol><symbol id="g"><path d="M.206.314A1.628 1.628 0 0 0 .112.037a.086.086 0 0 0-.04-.03C.054.001.041 0 .03.004a.04.04 0 0 0-.029.034C0 .046.003.056.01.065c.014.02.033.064.057.132.025.068.04.115.046.142.002.01.006.016.013.022A.039.039 0 0 0 .15.369c.008 0 .016 0 .024-.002A.05.05 0 0 0 .199.348c.007-.01.01-.02.007-.034Z"/></symbol><symbol id="h"><path d="M-2147483500-2147483500Z"/></symbol><symbol id="i"><path d="M.434.008A3.483 3.483 0 0 1 .218.002a2.407 2.407 0 0 0-.177.001C.026.005.016.014.009.031a.245.245 0 0 0 .01.163.334.334 0 0 0 .138.16c.072.04.118.069.138.084a.138.138 0 0 1 .052.069.195.195 0 0 1 .006.052c0 .034-.01.06-.03.075a.136.136 0 0 1-.086.023.132.132 0 0 1-.075-.024A.19.19 0 0 1 .107.58.118.118 0 0 0 .09.56.03.03 0 0 0 .073.552H.058a.158.158 0 0 0-.02.008.04.04 0 0 0-.02.025c-.004.011 0 .026.008.044a.15.15 0 0 0 .03.038.279.279 0 0 0 .107.064c.023.007.046.01.07.01.071 0 .126-.016.163-.05C.434.658.453.608.453.541.453.487.438.443.41.41A.414.414 0 0 0 .3.327 2.137 2.137 0 0 0 .23.289.256.256 0 0 1 .158.233.226.226 0 0 1 .1.089 2.493 2.493 0 0 1 .289.087l.067.005.05.004a.355.355 0 0 1 .021 0 .157.157 0 0 0 .02-.002.078.078 0 0 0 .01-.005.016.016 0 0 0 .006-.007A.038.038 0 0 0 .467.07.088.088 0 0 0 .466.044.056.056 0 0 0 .455.019.025.025 0 0 0 .434.008Z"/></symbol><symbol id="j"><path d="M.458.223A.215.215 0 0 0 .394.06.248.248 0 0 0 .217 0a.235.235 0 0 0-.07.01.244.244 0 0 0-.137.102.064.064 0 0 0-.007.042c.002.013.009.022.02.028A.049.049 0 0 0 .06.187.062.062 0 0 0 .092.16.227.227 0 0 1 .148.107.129.129 0 0 1 .221.084c.04 0 .073.012.098.035a.112.112 0 0 1 .04.087c0 .022-.004.04-.011.057a.105.105 0 0 1-.032.042.145.145 0 0 1-.06.028.382.382 0 0 1-.09.01.047.047 0 0 0-.036.015.055.055 0 0 0-.015.038C.115.41.12.42.126.43c.007.008.018.013.032.013.056 0 .1.01.131.033a.108.108 0 0 1 .047.097c0 .03-.01.053-.032.067A.168.168 0 0 1 .17.655.801.801 0 0 1 .13.623.364.364 0 0 1 .108.598C.099.582.087.573.076.57A.053.053 0 0 0 .04.576a.037.037 0 0 0-.02.027.068.068 0 0 0 .008.043.17.17 0 0 0 .061.068c.014.01.032.018.052.024.02.006.042.009.065.009C.283.747.341.73.38.698.417.666.436.62.435.556A.16.16 0 0 0 .428.503.123.123 0 0 0 .375.435a.192.192 0 0 0-.08-.03.34.34 0 0 0 .07-.023.168.168 0 0 0 .05-.033.123.123 0 0 0 .032-.052.224.224 0 0 0 .01-.074Z"/></symbol><use xlink:href="#e" transform="matrix(7.19154 0 0 -7.19154 31.82 17.048)"/><use xlink:href="#f" transform="matrix(7.19154 0 0 -7.19154 35.826 16.942)"/><use xlink:href="#g" transform="matrix(7.19154 0 0 -7.19154 40.548 18.448)"/><use xlink:href="#h" transform="matrix(7.19154 0 0 -7.19154 15443712000 -15443712000)"/><use xlink:href="#e" transform="matrix(7.19154 0 0 -7.19154 47.498 17.048)"/><use xlink:href="#i" transform="matrix(7.19154 0 0 -7.19154 51.554 17.02)"/><use xlink:href="#g" transform="matrix(7.19154 0 0 -7.19154 56.226 18.448)"/><use xlink:href="#h" transform="matrix(7.19154 0 0 -7.19154 15443712000 -15443712000)"/><use xlink:href="#e" transform="matrix(7.19154 0 0 -7.19154 63.176 17.048)"/><use xlink:href="#j" transform="matrix(7.19154 0 0 -7.19154 67.342 17.055)"/></g></g></svg>