<svg xmlns="http://www.w3.org/2000/svg" xmlns:xlink="http://www.w3.org/1999/xlink" width="217pt" height="80" viewBox="0 0 217 60"><clipPath id="a"><path transform="matrix(1 0 0 -1 -151 542)" d="M0 0h612v792.96H0Z"/></clipPath><g clip-path="url(#a)"><clipPath id="b"><path transform="matrix(.24 0 0 .24 -151 -250.96)" d="M0 0h2550v3302.115H0Z" fill-rule="evenodd"/></clipPath><g clip-path="url(#b)" fill="#fff"><path d="M-151-250.96h612v792.508h-612Z"/><path d="M-151-250.96h612v791.789h-612Z"/></g><clipPath id="c"><path transform="matrix(.24 0 0 .24 -151 -250.96)" d="M0 0h2550v3299.119H0Z" fill-rule="evenodd"/></clipPath><g clip-path="url(#c)"><path d="M57.914 29.87a28.735 28.735 0 0 1-2.19 11.008 28.751 28.751 0 0 1-10.594 12.91 28.739 28.739 0 0 1-10.37 4.295 28.741 28.741 0 0 1-13.962-.686 28.736 28.736 0 0 1-9.899-5.29 28.748 28.748 0 0 1-8.327-11.229 28.75 28.75 0 0 1-1.637-16.62 28.75 28.75 0 0 1 7.872-14.73 28.741 28.741 0 0 1 9.333-6.235 28.761 28.761 0 0 1 26.99 2.658 28.748 28.748 0 0 1 9.388 10.358 28.745 28.745 0 0 1 3.396 13.56Z" fill="#fff"/><path fill="none" stroke="#000" d="M57.914 29.87a28.735 28.735 0 0 1-2.19 11.008 28.751 28.751 0 0 1-10.594 12.91 28.739 28.739 0 0 1-10.37 4.295 28.741 28.741 0 0 1-13.962-.686 28.736 28.736 0 0 1-9.899-5.29 28.748 28.748 0 0 1-8.327-11.229 28.75 28.75 0 0 1-1.637-16.62 28.75 28.75 0 0 1 7.872-14.73 28.741 28.741 0 0 1 9.333-6.235 28.761 28.761 0 0 1 26.99 2.658 28.748 28.748 0 0 1 9.388 10.358 28.745 28.745 0 0 1 3.396 13.56Z" stroke-width=".71915"/><symbol id="d"><path d="M.463.29a.397.397 0 0 0-.01-.103.252.252 0 0 0-.082-.14A.195.195 0 0 0 .245 0c-.06 0-.11.016-.152.047C.092.03.088.02.08.014A.05.05 0 0 0 .05.003C.017.002 0 .02 0 .058a37.753 37.753 0 0 0 .004.668c0 .02.004.035.011.043a.045.045 0 0 0 .032.013A.05.05 0 0 0 .085.77C.095.763.1.748.099.726A19.246 19.246 0 0 0 .098.49c.044.03.096.045.155.045A.197.197 0 0 0 .44.415.295.295 0 0 0 .463.29M.231.452A.19.19 0 0 1 .097.4c0-.086 0-.176-.002-.272A.128.128 0 0 1 .147.095a.228.228 0 0 1 .071-.01c.048 0 .085.018.11.053a.232.232 0 0 1 .039.143C.366.311.36.34.35.364a.147.147 0 0 1-.046.062.12.12 0 0 1-.073.026Z"/></symbol><use xlink:href="#d" transform="matrix(8.62985 0 0 -8.62985 26.91 31.066)"/><symbol id="e"><path d="M.108.044A.035.035 0 0 0 .09.011a.065.065 0 0 0-.04-.01.052.052 0 0 0-.034.013C.007.022.004.034.005.049.008.084.01.113.01.138l-.001.18.001.081a1.598 1.598 0 0 1-.005.21L.001.68v.006a.04.04 0 0 0 .013.033c.009.01.02.016.036.016A.053.053 0 0 0 .082.726a.717.717 0 0 0 .15-.022A.455.455 0 0 0 .345.66.31.31 0 0 0 .421.602.212.212 0 0 0 .465.536.18.18 0 0 0 .478.469.15.15 0 0 0 .471.423a.112.112 0 0 0-.05-.064.206.206 0 0 0-.04-.02.7.7 0 0 0-.174-.032.834.834 0 0 0 .177-.122.438.438 0 0 0 .102-.118A.048.048 0 0 0 .467.01.039.039 0 0 0 .435.003.058.058 0 0 0 .4.027a1.24 1.24 0 0 1-.21.193.62.62 0 0 1-.103.058 2.934 2.934 0 0 1 .02-.234M.1.517A.378.378 0 0 0 .097.455 1.707 1.707 0 0 0 .09.38a.27.27 0 0 1 .063 0 1.867 1.867 0 0 1 .125.01.307.307 0 0 1 .047.01c.012.004.023.01.033.015.01.006.017.014.021.022a.06.06 0 0 1 .007.029.086.086 0 0 1-.02.054.194.194 0 0 1-.053.046.679.679 0 0 1-.217.079L.101.516Z"/></symbol><use xlink:href="#e" transform="matrix(8.62985 0 0 -8.62985 142.16 9.544)"/><path stroke-miterlimit="10" fill="none" stroke="#000" d="M57.914 29.87h84.688M138.373 32.387l5.034-2.517-5.034-2.517M144.213 44.253V15.487M144.213 29.87h14.383" stroke-width=".71915"/><path d="M216.128 29.87a28.735 28.735 0 0 1-2.19 11.008 28.753 28.753 0 0 1-13.016 14.361 28.732 28.732 0 0 1-10.74 3.258 28.753 28.753 0 0 1-16.38-3.258 28.75 28.75 0 0 1-11.81-11.81 28.741 28.741 0 0 1-3.396-13.56A28.761 28.761 0 0 1 171.38 5.952a28.755 28.755 0 0 1 18.802-4.709 28.754 28.754 0 0 1 17.52 8.287 28.75 28.75 0 0 1 7.873 14.729 28.754 28.754 0 0 1 .553 5.612Z" fill="#fff"/><path d="M216.164 34.203a29.109 29.109 0 0 1-.407 2.15l-.701-.16c.158-.694.29-1.393.396-2.097l.712.107Zm-.971 4.254a29.123 29.123 0 0 1-.735 2.095l-.669-.264c.265-.672.504-1.353.717-2.043l.687.212Zm-1.604 4.08a29.13 29.13 0 0 1-1.027 1.937l-.622-.361a28.37 28.37 0 0 0 1.001-1.89l.648.314Zm-2.202 3.798c-.411.6-.845 1.185-1.3 1.753l-.562-.45c.444-.554.867-1.124 1.269-1.71l.593.407Zm-2.736 3.411a29.03 29.03 0 0 1-1.557 1.547l-.488-.529a28.4 28.4 0 0 0 1.52-1.509l.525.491Zm-3.224 2.97c-.571.452-1.159.881-1.762 1.289l-.402-.596c.588-.397 1.16-.816 1.718-1.257l.446.564Zm-3.633 2.452c-.635.362-1.282.7-1.942 1.013l-.308-.65a28.413 28.413 0 0 0 1.894-.987l.356.624Zm-3.937 1.87c-.69.267-1.389.507-2.097.72l-.207-.688c.69-.208 1.372-.442 2.045-.702l.259.67Zm-4.201 1.27c-.715.157-1.435.288-2.16.392l-.101-.711a28.43 28.43 0 0 0 2.106-.384l.155.702Zm-4.346.622c-.649.044-1.298.065-1.948.065h-.19l.003-.72.187.001c.634 0 1.267-.021 1.9-.063l.048.717Zm-4.286-.029a29.147 29.147 0 0 1-2.194-.26l.112-.71c.71.111 1.423.196 2.14.254l-.058.716Zm-4.334-.68c-.71-.167-1.41-.36-2.104-.58l.216-.685c.677.214 1.361.402 2.053.565l-.165.7Zm-4.191-1.327c-.671-.27-1.331-.564-1.98-.883l.317-.646c.633.311 1.277.598 1.93.861l-.267.668Zm-3.912-1.924a29.091 29.091 0 0 1-1.851-1.186l.41-.59c.587.407 1.189.793 1.806 1.156l-.365.62Zm-3.597-2.5a29.09 29.09 0 0 1-1.648-1.446l.494-.522c.518.49 1.054.96 1.608 1.41l-.454.558Zm-3.185-3.014c-.491-.541-.962-1.1-1.411-1.676l.567-.443c.438.563.897 1.108 1.377 1.635l-.533.484Zm-2.687-3.445a29.156 29.156 0 0 1-1.152-1.881l.627-.352c.351.625.726 1.237 1.123 1.834l-.598.399Zm-2.151-3.828a29.112 29.112 0 0 1-.846-2.006l.673-.255c.25.662.525 1.315.825 1.957l-.652.304Zm-1.55-4.104a29.117 29.117 0 0 1-.534-2.104l.703-.15c.148.69.322 1.374.521 2.051l-.69.203Zm-.914-4.273a29.13 29.13 0 0 1-.214-2.183l.718-.043c.043.712.113 1.421.209 2.13l-.713.096Zm-.264-4.317c.009-.719.045-1.436.108-2.153l.716.063a28.398 28.398 0 0 0-.105 2.1l-.72-.01Zm.384-4.35a29.15 29.15 0 0 1 .433-2.13l.699.169c-.167.687-.308 1.38-.422 2.078l-.71-.117Zm1.027-4.235c.228-.702.481-1.394.76-2.077l.666.273c-.273.665-.52 1.34-.741 2.026l-.685-.222Zm1.658-4.053c.327-.656.68-1.298 1.055-1.927l.618.369c-.367.613-.71 1.24-1.03 1.88l-.643-.322Zm2.252-3.768c.42-.596.862-1.175 1.326-1.738l.555.458a28.415 28.415 0 0 0-1.293 1.694l-.588-.414Zm2.784-3.376a29.132 29.132 0 0 1 1.578-1.526l.48.535c-.532.477-1.045.973-1.54 1.488l-.518-.497Zm3.263-2.926a29.15 29.15 0 0 1 1.777-1.263l.395.601c-.594.39-1.171.8-1.733 1.232l-.439-.57Zm3.668-2.404c.638-.352 1.288-.68 1.951-.984l.3.653c-.647.297-1.281.617-1.903.96l-.348-.629Zm3.968-1.819c.69-.256 1.39-.485 2.099-.688l.198.691c-.691.198-1.374.422-2.048.672l-.25-.675Zm4.203-1.207a29.1 29.1 0 0 1 2.177-.366l.092.713c-.712.092-1.42.211-2.123.357l-.146-.704Zm4.356-.565a29.114 29.114 0 0 1 2.132-.036l-.014.719a28.315 28.315 0 0 0-2.079.035l-.039-.718Zm4.29.086c.737.07 1.47.167 2.2.292l-.122.709a28.398 28.398 0 0 0-2.146-.285l.067-.716Zm4.32.738c.71.177 1.41.38 2.104.61l-.226.683a28.383 28.383 0 0 0-2.052-.595l.174-.698Zm4.172 1.383c.669.279 1.326.583 1.972.911l-.325.641c-.63-.32-1.272-.617-1.924-.889l.277-.663Zm3.894 1.98c.625.38 1.235.783 1.83 1.209l-.418.584a28.395 28.395 0 0 0-1.785-1.178l.373-.614Zm3.56 2.547c.56.469 1.104.958 1.629 1.469l-.501.515a28.4 28.4 0 0 0-1.59-1.432l.462-.552Zm3.144 3.057c.484.547.946 1.112 1.388 1.694l-.573.435a28.395 28.395 0 0 0-1.354-1.652l.539-.477Zm2.64 3.481c.4.618.776 1.25 1.127 1.898l-.632.343c-.342-.63-.709-1.248-1.099-1.85l.604-.391Zm2.098 3.853c.3.665.573 1.341.822 2.027l-.676.245c-.243-.669-.51-1.328-.802-1.976l.656-.296Zm1.495 4.128c.194.694.362 1.395.504 2.103l-.705.141a28.397 28.397 0 0 0-.492-2.05l.693-.194Zm.857 4.29c.088.722.15 1.447.184 2.175l-.719.034a28.445 28.445 0 0 0-.18-2.122l.715-.087Zm.216 3.54c0 .716-.027 1.43-.08 2.143l-.716-.053c.05-.695.077-1.392.077-2.09h.719Z"/><symbol id="f"><path d="M.425.001A.056.056 0 0 0 .388.01C.378.016.369.03.364.05a1.151 1.151 0 0 1-.011.066C.311.045.257.01.192.01a.181.181 0 0 0-.12.048.25.25 0 0 0-.064.106A.207.207 0 0 0 0 .22a.578.578 0 0 0 .03.182c.01.023.022.044.036.062a.226.226 0 0 0 .098.074.349.349 0 0 0 .12.022.196.196 0 0 0 .092-.02.266.266 0 0 0 .078-.064A1.391 1.391 0 0 1 .438.263C.439.206.448.139.465.061.47.041.468.026.46.017A.05.05 0 0 0 .425 0M.104.253a.257.257 0 0 1 .021-.1.108.108 0 0 1 .03-.04.064.064 0 0 1 .04-.015c.017 0 .033.005.049.014.016.01.03.021.042.035a.323.323 0 0 1 .056.097c0 .062.004.126.011.194a.164.164 0 0 1-.041.025.13.13 0 0 1-.05.008.126.126 0 0 1-.08-.029A.176.176 0 0 1 .116.34.314.314 0 0 1 .104.253Z"/></symbol><use xlink:href="#f" transform="matrix(8.62985 0 0 -8.62985 185.047 31.3)"/><symbol id="g"><path d="M.1.053C.1.043.097.033.094.026A.032.032 0 0 0 .083.009.043.043 0 0 0 .068.002.067.067 0 0 0 .051 0 .047.047 0 0 0 .02.012C.012.02.009.033.009.053a.52.52 0 0 1-.004.072 4.953 4.953 0 0 0-.002.359c0 .022.006.039.017.05.012.01.025.015.039.015A.038.038 0 0 0 .09.533C.099.523.1.507.098.484L.094.46A.782.782 0 0 1 .091.434c.032.066.076.1.132.1C.237.534.25.524.26.506A.26.26 0 0 0 .285.433c.036.067.087.1.151.1.016 0 .029-.01.038-.029A.223.223 0 0 0 .491.427 1.716 1.716 0 0 0 .495.19C.494.148.495.106.496.065.496.052.496.04.494.03a.04.04 0 0 0-.01-.02.028.028 0 0 0-.012-.008.044.044 0 0 0-.016-.002c-.006 0-.012 0-.018.002A.05.05 0 0 0 .422.01a.042.042 0 0 0-.014.02.12.12 0 0 0-.006.034.887.887 0 0 0-.001.08A8.47 8.47 0 0 1 .403.34.542.542 0 0 1 .4.41C.397.43.393.439.387.439.368.44.351.43.335.41A.266.266 0 0 1 .296.333a1.58 1.58 0 0 0-.001-.15A1.508 1.508 0 0 1 .293.058.08.08 0 0 0 .29.028.031.031 0 0 0 .28.01.036.036 0 0 0 .265.002.056.056 0 0 0 .248.001a.042.042 0 0 0-.03.012C.21.02.204.035.202.058c-.001.021 0 .058.003.111.004.054.006.095.006.125v.024C.212.368.21.4.208.416.206.432.2.439.19.439.173.44.157.43.14.406A.311.311 0 0 1 .094.328 2.641 2.641 0 0 1 .097.12L.099.053Z"/></symbol><symbol id="h"><path d="M.487.046a.045.045 0 0 0-.01-.033C.469.004.455 0 .435 0a46.219 46.219 0 0 0-.391.003C.029.003.018.007.01.016a.046.046 0 0 0-.01.03C0 .06.003.071.01.08c.007.009.019.013.035.013.03 0 .081 0 .154-.002 0 .027 0 .048-.002.065V.273a7.032 7.032 0 0 0 .009.24L.21.596A.483.483 0 0 0 .1.522C.088.517.075.521.061.532.048.544.041.556.041.568c0 .01.003.02.008.029a.105.105 0 0 0 .025.026A1.666 1.666 0 0 1 .181.71a.2.2 0 0 0 .03.02c.01.006.018.01.026.01A.07.07 0 0 0 .281.72C.296.71.303.7.303.691L.297.526A7.525 7.525 0 0 1 .292.363 11.858 11.858 0 0 1 .295.088 4.586 4.586 0 0 0 .437.085C.456.085.47.081.476.075A.041.041 0 0 0 .487.045Z"/></symbol><symbol id="i"><path d="M.206.314A1.628 1.628 0 0 0 .112.037a.086.086 0 0 0-.04-.03C.054.001.041 0 .03.004a.04.04 0 0 0-.029.034C0 .046.003.056.01.065c.014.02.033.064.057.132.025.068.04.115.046.142.002.01.006.016.013.022A.039.039 0 0 0 .15.369c.008 0 .016 0 .024-.002A.05.05 0 0 0 .199.348c.007-.01.01-.02.007-.034Z"/></symbol><symbol id="j"><path d="M-2147483500-2147483500Z"/></symbol><symbol id="k"><path d="M.434.008A3.483 3.483 0 0 1 .218.002a2.407 2.407 0 0 0-.177.001C.026.005.016.014.009.031a.245.245 0 0 0 .01.163.334.334 0 0 0 .138.16c.072.04.118.069.138.084a.138.138 0 0 1 .052.069.195.195 0 0 1 .006.052c0 .034-.01.06-.03.075a.136.136 0 0 1-.086.023.132.132 0 0 1-.075-.024A.19.19 0 0 1 .107.58.118.118 0 0 0 .09.56.03.03 0 0 0 .073.552H.058a.158.158 0 0 0-.02.008.04.04 0 0 0-.02.025c-.004.011 0 .026.008.044a.15.15 0 0 0 .03.038.279.279 0 0 0 .107.064c.023.007.046.01.07.01.071 0 .126-.016.163-.05C.434.658.453.608.453.541.453.487.438.443.41.41A.414.414 0 0 0 .3.327 2.137 2.137 0 0 0 .23.289.256.256 0 0 1 .158.233.226.226 0 0 1 .1.089 2.493 2.493 0 0 1 .289.087l.067.005.05.004a.355.355 0 0 1 .021 0 .157.157 0 0 0 .02-.002.078.078 0 0 0 .01-.005.016.016 0 0 0 .006-.007A.038.038 0 0 0 .467.07.088.088 0 0 0 .466.044.056.056 0 0 0 .455.019.025.025 0 0 0 .434.008Z"/></symbol><symbol id="l"><path d="M.458.223A.215.215 0 0 0 .394.06.248.248 0 0 0 .217 0a.235.235 0 0 0-.07.01.244.244 0 0 0-.137.102.064.064 0 0 0-.007.042c.002.013.009.022.02.028A.049.049 0 0 0 .06.187.062.062 0 0 0 .092.16.227.227 0 0 1 .148.107.129.129 0 0 1 .221.084c.04 0 .073.012.098.035a.112.112 0 0 1 .04.087c0 .022-.004.04-.011.057a.105.105 0 0 1-.032.042.145.145 0 0 1-.06.028.382.382 0 0 1-.09.01.047.047 0 0 0-.036.015.055.055 0 0 0-.015.038C.115.41.12.42.126.43c.007.008.018.013.032.013.056 0 .1.01.131.033a.108.108 0 0 1 .047.097c0 .03-.01.053-.032.067A.168.168 0 0 1 .17.655.801.801 0 0 1 .13.623.364.364 0 0 1 .108.598C.099.582.087.573.076.57A.053.053 0 0 0 .04.576a.037.037 0 0 0-.02.027.068.068 0 0 0 .008.043.17.17 0 0 0 .061.068c.014.01.032.018.052.024.02.006.042.009.065.009C.283.747.341.73.38.698.417.666.436.62.435.556A.16.16 0 0 0 .428.503.123.123 0 0 0 .375.435a.192.192 0 0 0-.08-.03.34.34 0 0 0 .07-.023.168.168 0 0 0 .05-.033.123.123 0 0 0 .032-.052.224.224 0 0 0 .01-.074Z"/></symbol><use xlink:href="#g" transform="matrix(7.19154 0 0 -7.19154 85.225 17.453)"/><use xlink:href="#h" transform="matrix(7.19154 0 0 -7.19154 89.23 17.348)"/><use xlink:href="#i" transform="matrix(7.19154 0 0 -7.19154 93.952 18.853)"/><use xlink:href="#j" transform="matrix(7.19154 0 0 -7.19154 15443712000 -15443712000)"/><use xlink:href="#g" transform="matrix(7.19154 0 0 -7.19154 100.903 17.453)"/><use xlink:href="#k" transform="matrix(7.19154 0 0 -7.19154 104.958 17.425)"/><use xlink:href="#i" transform="matrix(7.19154 0 0 -7.19154 109.63 18.853)"/><use xlink:href="#j" transform="matrix(7.19154 0 0 -7.19154 15443712000 -15443712000)"/><use xlink:href="#g" transform="matrix(7.19154 0 0 -7.19154 116.58 17.453)"/><use xlink:href="#l" transform="matrix(7.19154 0 0 -7.19154 120.747 17.46)"/></g></g></svg>